<svg width="1049" height="849" viewBox="0 0 1049 849" fill="none" xmlns="http://www.w3.org/2000/svg">
<mask id="mask0_669_3687" style="mask-type:alpha" maskUnits="userSpaceOnUse" x="100" y="0" width="849" height="849">
<rect x="382.843" y="141.421" width="200" height="200" transform="rotate(-45 382.843 141.421)" fill="#7C50C3"/>
<rect x="100" y="141.422" width="200" height="200" transform="rotate(-45 100 141.422)" fill="#7C50C3"/>
<rect x="665.686" y="141.421" width="200" height="200" transform="rotate(-45 665.686 141.421)" fill="#7C50C3"/>
<path d="M948.528 424.264L807.106 565.685L807.107 565.686L524.265 848.528L241.5 565.764L241.421 565.843L100 424.421L241.421 283L382.764 424.343L524.265 282.843L665.686 424.263L807.106 282.843L948.528 424.264Z" fill="#7C50C3"/>
</mask>
<g mask="url(#mask0_669_3687)">
<rect x="100" width="849" height="849" fill="url(#paint0_linear_669_3687)"/>
<path d="M241.429 141L241.429 282.5L171 211.5L100 141L241.429 141Z" fill="url(#paint1_linear_669_3687)" fill-opacity="0.5" style="mix-blend-mode:overlay"/>
<path d="M524.429 141L524.429 282.5L454 211.5L383 141L524.429 141Z" fill="url(#paint2_linear_669_3687)" fill-opacity="0.5" style="mix-blend-mode:overlay"/>
<path d="M807.429 141L807.429 282.5L737 211.5L666 141L807.429 141Z" fill="url(#paint3_linear_669_3687)" fill-opacity="0.5" style="mix-blend-mode:overlay"/>
<path d="M807 141.5L807 0L877.429 71L948.429 141.5L807 141.5Z" fill="url(#paint4_linear_669_3687)" style="mix-blend-mode:exclusion"/>
<path d="M524 141.5L524 0L594.429 71L665.429 141.5L524 141.5Z" fill="url(#paint5_linear_669_3687)" style="mix-blend-mode:exclusion"/>
<path d="M241 141.5L241 0L311.429 71L382.429 141.5L241 141.5Z" fill="url(#paint6_linear_669_3687)" style="mix-blend-mode:exclusion"/>
</g>
<defs>
<linearGradient id="paint0_linear_669_3687" x1="524" y1="-34.5" x2="524" y2="4041.5" gradientUnits="userSpaceOnUse">
<stop offset="0.0769231" stop-color="#703CC3"/>
<stop offset="0.230769" stop-color="#02DB81"/>
</linearGradient>
<linearGradient id="paint1_linear_669_3687" x1="162.5" y1="219.5" x2="241" y2="141" gradientUnits="userSpaceOnUse">
<stop stop-color="white"/>
<stop offset="1"/>
</linearGradient>
<linearGradient id="paint2_linear_669_3687" x1="445.5" y1="219.5" x2="524" y2="141" gradientUnits="userSpaceOnUse">
<stop stop-color="white"/>
<stop offset="1"/>
</linearGradient>
<linearGradient id="paint3_linear_669_3687" x1="728.5" y1="219.5" x2="807" y2="141" gradientUnits="userSpaceOnUse">
<stop stop-color="white"/>
<stop offset="1"/>
</linearGradient>
<linearGradient id="paint4_linear_669_3687" x1="878" y1="71" x2="807" y2="142" gradientUnits="userSpaceOnUse">
<stop/>
<stop offset="1" stop-color="white"/>
</linearGradient>
<linearGradient id="paint5_linear_669_3687" x1="595" y1="71" x2="524" y2="142" gradientUnits="userSpaceOnUse">
<stop/>
<stop offset="1" stop-color="white"/>
</linearGradient>
<linearGradient id="paint6_linear_669_3687" x1="312" y1="71" x2="241" y2="142" gradientUnits="userSpaceOnUse">
<stop/>
<stop offset="1" stop-color="white"/>
</linearGradient>
</defs>
</svg>
